<svg width="1440" height="1024" viewBox="0 0 1440 1024" fill="none" xmlns="http://www.w3.org/2000/svg">
<path d="M0 2C0 0.895431 0.895431 0 2 0H1438C1439.1 0 1440 0.895431 1440 2V1022C1440 1023.1 1439.1 1024 1438 1024H2.00003C0.895457 1024 0 1023.1 0 1022V2Z" fill="#404040"/>
<rect width="1440" height="1024" fill="#141727"/>
<path d="M253.092 191.544C253.679 189.677 256.321 189.677 256.908 191.544L262.517 209.391C262.922 210.68 261.96 211.991 260.609 211.991H249.391C248.04 211.991 247.078 210.68 247.483 209.391L253.092 191.544Z" fill="#FFFDC1"/>
<path d="M256.922 232.315C256.367 234.245 253.633 234.245 253.078 232.315L247.827 214.053C247.46 212.774 248.419 211.5 249.749 211.5H260.251C261.581 211.5 262.54 212.774 262.173 214.053L256.922 232.315Z" fill="#FFFDC1"/>
<path d="M238.837 212.865C237.927 212.561 237.927 211.273 238.837 210.968L247.638 208.027C248.285 207.81 248.955 208.292 248.955 208.975V214.858C248.955 215.541 248.285 216.023 247.638 215.807L238.837 212.865Z" fill="#FFFDC1"/>
<path d="M268.325 210.02C270.146 210.629 270.146 213.205 268.325 213.814L263.679 215.366C262.384 215.799 261.045 214.835 261.045 213.47V210.364C261.045 208.998 262.384 208.034 263.679 208.467L268.325 210.02Z" fill="#FFFDC1"/>
<path d="M1167.09 52.5442C1167.68 50.677 1170.32 50.677 1170.91 52.5441L1176.52 70.3914C1176.92 71.6799 1175.96 72.9911 1174.61 72.9911H1163.39C1162.04 72.9911 1161.08 71.6799 1161.48 70.3914L1167.09 52.5442Z" fill="#FFFDC1"/>
<path d="M1170.92 93.3147C1170.37 95.2445 1167.63 95.2445 1167.08 93.3147L1161.83 75.0526C1161.46 73.7743 1162.42 72.5 1163.75 72.5H1174.25C1175.58 72.5 1176.54 73.7743 1176.17 75.0526L1170.92 93.3147Z" fill="#FFFDC1"/>
<path d="M1152.84 73.8651C1151.93 73.5607 1151.93 72.2727 1152.84 71.9683L1161.64 69.0268C1162.29 68.8103 1162.95 69.2923 1162.95 69.9752V75.8582C1162.95 76.5411 1162.29 77.0231 1161.64 76.8066L1152.84 73.8651Z" fill="#FFFDC1"/>
<path d="M1182.33 71.0198C1184.15 71.6286 1184.15 74.2048 1182.33 74.8135L1177.68 76.3664C1176.38 76.7994 1175.05 75.8353 1175.05 74.4695V71.3638C1175.05 69.998 1176.38 69.034 1177.68 69.467L1182.33 71.0198Z" fill="#FFFDC1"/>
<path d="M870.092 508.544C870.679 506.677 873.321 506.677 873.908 508.544L879.517 526.391C879.922 527.68 878.96 528.991 877.609 528.991H866.391C865.04 528.991 864.078 527.68 864.483 526.391L870.092 508.544Z" fill="#FFFDC1"/>
<path d="M873.922 549.315C873.367 551.245 870.633 551.245 870.078 549.315L864.827 531.053C864.46 529.774 865.419 528.5 866.749 528.5H877.251C878.581 528.5 879.54 529.774 879.173 531.053L873.922 549.315Z" fill="#FFFDC1"/>
<path d="M855.837 529.865C854.927 529.561 854.927 528.273 855.837 527.968L864.638 525.027C865.285 524.81 865.955 525.292 865.955 525.975V531.858C865.955 532.541 865.285 533.023 864.638 532.807L855.837 529.865Z" fill="#FFFDC1"/>
<path d="M885.325 527.02C887.146 527.629 887.146 530.205 885.325 530.813L880.679 532.366C879.384 532.799 878.045 531.835 878.045 530.469V527.364C878.045 525.998 879.384 525.034 880.679 525.467L885.325 527.02Z" fill="#FFFDC1"/>
<path d="M1419.09 65.5442C1419.68 63.677 1422.32 63.677 1422.91 65.5441L1428.52 83.3914C1428.92 84.6799 1427.96 85.9911 1426.61 85.9911H1415.39C1414.04 85.9911 1413.08 84.6799 1413.48 83.3914L1419.09 65.5442Z" fill="#FFFDC1"/>
<path d="M1422.92 106.315C1422.37 108.245 1419.63 108.245 1419.08 106.315L1413.83 88.0526C1413.46 86.7743 1414.42 85.5 1415.75 85.5H1426.25C1427.58 85.5 1428.54 86.7743 1428.17 88.0526L1422.92 106.315Z" fill="#FFFDC1"/>
<path d="M1404.84 86.8651C1403.93 86.5607 1403.93 85.2727 1404.84 84.9683L1413.64 82.0268C1414.29 81.8103 1414.95 82.2923 1414.95 82.9752V88.8582C1414.95 89.5411 1414.29 90.0231 1413.64 89.8066L1404.84 86.8651Z" fill="#FFFDC1"/>
<path d="M1434.33 84.0198C1436.15 84.6286 1436.15 87.2048 1434.33 87.8135L1429.68 89.3664C1428.38 89.7994 1427.05 88.8353 1427.05 87.4695V84.3638C1427.05 82.998 1428.38 82.034 1429.68 82.467L1434.33 84.0198Z" fill="#FFFDC1"/>
<path d="M400.092 357.544C400.679 355.677 403.321 355.677 403.908 357.544L409.517 375.391C409.922 376.68 408.96 377.991 407.609 377.991H396.391C395.04 377.991 394.078 376.68 394.483 375.391L400.092 357.544Z" fill="#FFFDC1"/>
<path d="M403.922 398.315C403.367 400.245 400.633 400.245 400.078 398.315L394.827 380.053C394.46 378.774 395.419 377.5 396.749 377.5H407.251C408.581 377.5 409.54 378.774 409.173 380.053L403.922 398.315Z" fill="#FFFDC1"/>
<path d="M385.837 378.865C384.927 378.561 384.927 377.273 385.837 376.968L394.638 374.027C395.285 373.81 395.955 374.292 395.955 374.975V380.858C395.955 381.541 395.285 382.023 394.638 381.807L385.837 378.865Z" fill="#FFFDC1"/>
<path d="M415.325 376.02C417.146 376.629 417.146 379.205 415.325 379.813L410.679 381.366C409.384 381.799 408.045 380.835 408.045 379.469V376.364C408.045 374.998 409.384 374.034 410.679 374.467L415.325 376.02Z" fill="#FFFDC1"/>
<path d="M1104.09 813.544C1104.68 811.677 1107.32 811.677 1107.91 813.544L1113.52 831.391C1113.92 832.68 1112.96 833.991 1111.61 833.991H1100.39C1099.04 833.991 1098.08 832.68 1098.48 831.391L1104.09 813.544Z" fill="#FFFDC1"/>
<path d="M1107.92 854.315C1107.37 856.245 1104.63 856.245 1104.08 854.315L1098.83 836.053C1098.46 834.774 1099.42 833.5 1100.75 833.5H1111.25C1112.58 833.5 1113.54 834.774 1113.17 836.053L1107.92 854.315Z" fill="#FFFDC1"/>
<path d="M1089.84 834.865C1088.93 834.561 1088.93 833.273 1089.84 832.968L1098.64 830.027C1099.29 829.81 1099.95 830.292 1099.95 830.975V836.858C1099.95 837.541 1099.29 838.023 1098.64 837.807L1089.84 834.865Z" fill="#FFFDC1"/>
<path d="M1119.33 832.02C1121.15 832.629 1121.15 835.205 1119.33 835.813L1114.68 837.366C1113.38 837.799 1112.05 836.835 1112.05 835.469V832.364C1112.05 830.998 1113.38 830.034 1114.68 830.467L1119.33 832.02Z" fill="#FFFDC1"/>
<path d="M110.092 786.544C110.679 784.677 113.321 784.677 113.908 786.544L119.517 804.391C119.922 805.68 118.96 806.991 117.609 806.991H106.391C105.04 806.991 104.078 805.68 104.483 804.391L110.092 786.544Z" fill="#FFFDC1"/>
<path d="M113.922 827.315C113.367 829.245 110.633 829.245 110.078 827.315L104.827 809.053C104.46 807.774 105.419 806.5 106.749 806.5H117.251C118.581 806.5 119.54 807.774 119.173 809.053L113.922 827.315Z" fill="#FFFDC1"/>
<path d="M95.8374 807.865C94.9268 807.561 94.9268 806.273 95.8374 805.968L104.638 803.027C105.285 802.81 105.955 803.292 105.955 803.975V809.858C105.955 810.541 105.285 811.023 104.638 810.807L95.8374 807.865Z" fill="#FFFDC1"/>
<path d="M125.325 805.02C127.146 805.629 127.146 808.205 125.325 808.813L120.679 810.366C119.384 810.799 118.045 809.835 118.045 808.469V805.364C118.045 803.998 119.384 803.034 120.679 803.467L125.325 805.02Z" fill="#FFFDC1"/>
<path d="M2 1H1438V-1H2V1ZM1439 2V1022H1441V2H1439ZM1438 1023H2.00003V1025H1438V1023ZM1 1022V2H-1V1022H1ZM2.00003 1023C1.44772 1023 1 1022.55 1 1022H-1C-1 1023.66 0.34319 1025 2.00003 1025V1023ZM1439 1022C1439 1022.55 1438.55 1023 1438 1023V1025C1439.66 1025 1441 1023.66 1441 1022H1439ZM1438 1C1438.55 1 1439 1.44773 1439 2H1441C1441 0.343128 1439.66 -1 1438 -1V1ZM2 -1C0.343146 -1 -1 0.343146 -1 2H1C1 1.44772 1.44772 1 2 1V-1Z" fill="white" fill-opacity="0.1"/>
</svg>
