<svg width="2551" height="1334" viewBox="0 0 2551 1334" fill="none" xmlns="http://www.w3.org/2000/svg">
<path d="M676.59 0H73.41C32.8667 0 0 32.8667 0 73.4099V1260.59C0 1301.13 32.8667 1334 73.41 1334H676.59C717.133 1334 750 1301.13 750 1260.59V73.4099C750 32.8667 717.133 0 676.59 0Z" fill="#E1DDE5"/>
<path d="M656.79 80.5H95.21C64.4422 80.5 39.5 105.442 39.5 136.21V1146.79C39.5 1177.56 64.4422 1202.5 95.21 1202.5H656.79C687.558 1202.5 712.5 1177.56 712.5 1146.79V136.21C712.5 105.442 687.558 80.5 656.79 80.5Z" fill="#178AA4" fill-opacity="0.59"/>
<path d="M376.5 1317.5C401.905 1317.5 422.5 1296.91 422.5 1271.5C422.5 1246.09 401.905 1225.5 376.5 1225.5C351.095 1225.5 330.5 1246.09 330.5 1271.5C330.5 1296.91 351.095 1317.5 376.5 1317.5Z" stroke="black" stroke-width="6" stroke-miterlimit="10"/>
<path d="M460.94 34.5H293.06C290.542 34.5 288.5 36.5416 288.5 39.0601V43.9399C288.5 46.4584 290.542 48.5 293.06 48.5H460.94C463.458 48.5 465.5 46.4584 465.5 43.9399V39.0601C465.5 36.5416 463.458 34.5 460.94 34.5Z" fill="black"/>
<path d="M657 90L481 162V306L365 498" stroke="black" stroke-width="3"/>
<path d="M713 126L609 202H409L373 390" stroke="black" stroke-width="3"/>
<path d="M709 314L565 278V158L377 126L237 234" stroke="black" stroke-width="3"/>
<path d="M81 1198L209 1068.04L104.273 902.828L209 770" stroke="black" stroke-width="3"/>
<path d="M45 1120.67L221.783 1174L277.609 1054L473 1120.67" stroke="black" stroke-width="3"/>
<path d="M136.766 1202L91 1050L299.489 946L330 802" stroke="black" stroke-width="3"/>
<path d="M1401.85 614V570.113H1413.69C1420.01 570.113 1424.99 571.988 1428.63 575.738C1432.26 579.449 1434.08 584.898 1434.08 592.086C1434.08 598.922 1432.32 604.293 1428.8 608.199C1425.29 612.066 1420.21 614 1413.57 614H1401.85ZM1406.54 610.016H1412.87C1417.94 610.016 1421.95 608.59 1424.88 605.738C1427.81 602.848 1429.27 598.297 1429.27 592.086C1429.27 585.797 1427.81 581.227 1424.88 578.375C1421.95 575.523 1417.98 574.098 1412.98 574.098H1406.54V610.016ZM1438.51 598.004C1438.51 593.082 1439.84 589.098 1442.49 586.051C1445.15 582.965 1448.59 581.422 1452.81 581.422C1457.1 581.422 1460.48 582.926 1462.94 585.934C1465.4 588.902 1466.63 592.711 1466.63 597.359C1466.63 597.906 1466.59 598.688 1466.52 599.703H1443.08C1443.08 602.867 1443.96 605.582 1445.72 607.848C1447.47 610.113 1449.91 611.246 1453.04 611.246C1455.07 611.246 1456.87 610.777 1458.43 609.84C1459.99 608.863 1461.2 607.574 1462.06 605.973L1465.93 607.145C1464.95 609.449 1463.37 611.344 1461.18 612.828C1459 614.312 1456.28 615.055 1453.04 615.055C1448.66 615.055 1445.15 613.492 1442.49 610.367C1439.84 607.242 1438.51 603.121 1438.51 598.004ZM1443.2 596.246H1462.06C1462.06 593.16 1461.22 590.562 1459.54 588.453C1457.86 586.305 1455.62 585.23 1452.81 585.23C1449.95 585.23 1447.65 586.324 1445.89 588.512C1444.17 590.699 1443.27 593.277 1443.2 596.246ZM1472.88 614V582.477H1477.22V587.047C1477.84 585.641 1478.88 584.352 1480.32 583.18C1481.77 582.008 1483.62 581.422 1485.89 581.422C1487.57 581.422 1489.05 581.695 1490.34 582.242V586.344C1488.94 585.797 1487.45 585.523 1485.89 585.523C1483.23 585.523 1481.16 586.52 1479.68 588.512C1478.19 590.504 1477.45 593.141 1477.45 596.422V614H1472.88ZM1503.72 574.098V570.113H1535.12V574.098H1521.77V614H1517.08V574.098H1503.72ZM1539.5 598.238C1539.5 602.223 1540.42 605.387 1542.25 607.73C1544.09 610.074 1546.37 611.246 1549.11 611.246C1551.8 611.246 1554.07 610.074 1555.9 607.73C1557.78 605.387 1558.72 602.223 1558.72 598.238C1558.72 594.176 1557.78 590.992 1555.9 588.688C1554.03 586.383 1551.76 585.23 1549.11 585.23C1546.41 585.23 1544.13 586.383 1542.25 588.688C1540.42 590.992 1539.5 594.176 1539.5 598.238ZM1534.93 598.238C1534.93 593.434 1536.16 589.43 1538.62 586.227C1541.12 583.023 1544.62 581.422 1549.11 581.422C1553.56 581.422 1557.04 583.023 1559.54 586.227C1562.04 589.43 1563.29 593.434 1563.29 598.238C1563.29 600.27 1563.01 602.242 1562.47 604.156C1561.96 606.07 1561.16 607.867 1560.06 609.547C1559.01 611.188 1557.53 612.516 1555.61 613.531C1553.74 614.547 1551.57 615.055 1549.11 615.055C1546.69 615.055 1544.52 614.566 1542.6 613.59C1540.73 612.574 1539.24 611.246 1538.15 609.605C1537.1 607.926 1536.3 606.129 1535.75 604.215C1535.2 602.301 1534.93 600.309 1534.93 598.238ZM1569.3 602.926V582.477H1573.87V601.988C1573.87 608.16 1576.14 611.246 1580.67 611.246C1583.44 611.246 1585.55 610.172 1587 608.023C1588.48 605.875 1589.22 603.336 1589.22 600.406V582.477H1593.68V614H1589.34V608.902C1589.03 610.191 1588.05 611.539 1586.41 612.945C1584.81 614.352 1582.54 615.055 1579.61 615.055C1576.61 615.055 1574.13 614.039 1572.17 612.008C1570.26 609.938 1569.3 606.91 1569.3 602.926ZM1600.1 598.238C1600.1 593.238 1601.37 589.195 1603.91 586.109C1606.45 582.984 1609.87 581.422 1614.16 581.422C1616.98 581.422 1619.38 582.242 1621.37 583.883C1623.4 585.484 1624.75 587.398 1625.41 589.625L1621.55 590.738C1620.96 589.176 1620 587.867 1618.67 586.812C1617.39 585.758 1615.88 585.23 1614.16 585.23C1611.27 585.23 1608.97 586.461 1607.25 588.922C1605.53 591.383 1604.67 594.488 1604.67 598.238C1604.67 602.223 1605.57 605.387 1607.37 607.73C1609.16 610.074 1611.43 611.246 1614.16 611.246C1616 611.246 1617.66 610.66 1619.14 609.488C1620.67 608.277 1621.74 606.891 1622.37 605.328L1626.23 606.559C1625.41 608.902 1623.91 610.914 1621.72 612.594C1619.57 614.234 1617.05 615.055 1614.16 615.055C1609.98 615.055 1606.59 613.531 1603.97 610.484C1601.39 607.438 1600.1 603.355 1600.1 598.238ZM1631.78 614V568.473H1636.23V587.574H1636.35C1637.13 585.895 1638.38 584.449 1640.1 583.238C1641.86 582.027 1643.85 581.422 1646.08 581.422C1652.87 581.422 1656.27 585.484 1656.27 593.609V614H1651.82V594.371C1651.82 588.277 1649.63 585.23 1645.26 585.23C1642.83 585.23 1640.72 586.227 1638.93 588.219C1637.13 590.211 1636.23 592.574 1636.23 595.309V614H1631.78ZM1661.88 607.789L1665.27 605.797C1667.58 609.43 1670.7 611.246 1674.65 611.246C1677.03 611.246 1678.93 610.816 1680.33 609.957C1681.78 609.098 1682.5 607.848 1682.5 606.207C1682.5 605.504 1682.32 604.879 1681.97 604.332C1681.62 603.746 1681.23 603.277 1680.8 602.926C1680.41 602.535 1679.69 602.125 1678.63 601.695C1677.58 601.227 1676.7 600.895 1676 600.699C1675.33 600.465 1674.22 600.094 1672.66 599.586C1671.29 599.156 1670.12 598.727 1669.14 598.297C1668.16 597.867 1667.15 597.301 1666.09 596.598C1665.04 595.855 1664.22 594.957 1663.63 593.902C1663.09 592.848 1662.81 591.637 1662.81 590.27C1662.81 587.652 1663.87 585.523 1665.98 583.883C1668.09 582.242 1670.98 581.422 1674.65 581.422C1677.23 581.422 1679.59 582.105 1681.74 583.473C1683.89 584.84 1685.43 586.441 1686.37 588.277L1683.32 590.27C1682.5 588.902 1681.31 587.73 1679.75 586.754C1678.22 585.738 1676.52 585.23 1674.65 585.23C1672.27 585.23 1670.45 585.699 1669.2 586.637C1667.99 587.535 1667.38 588.766 1667.38 590.328C1667.38 591.227 1667.62 592.047 1668.09 592.789C1668.55 593.492 1669.26 594.117 1670.2 594.664C1671.17 595.172 1672.05 595.582 1672.83 595.895C1673.65 596.168 1674.73 596.52 1676.05 596.949C1677.19 597.301 1678.18 597.633 1679.04 597.945C1679.94 598.258 1680.92 598.688 1681.97 599.234C1683.03 599.781 1683.91 600.367 1684.61 600.992C1685.31 601.578 1685.9 602.34 1686.37 603.277C1686.84 604.176 1687.07 605.152 1687.07 606.207C1687.07 608.707 1685.96 610.816 1683.73 612.535C1681.54 614.215 1678.52 615.055 1674.65 615.055C1671.84 615.055 1669.34 614.43 1667.15 613.18C1664.96 611.891 1663.2 610.094 1661.88 607.789ZM1690.8 598.238C1690.8 593.238 1692.07 589.195 1694.61 586.109C1697.15 582.984 1700.56 581.422 1704.86 581.422C1707.67 581.422 1710.08 582.242 1712.07 583.883C1714.1 585.484 1715.45 587.398 1716.11 589.625L1712.24 590.738C1711.66 589.176 1710.7 587.867 1709.37 586.812C1708.08 585.758 1706.58 585.23 1704.86 585.23C1701.97 585.23 1699.67 586.461 1697.95 588.922C1696.23 591.383 1695.37 594.488 1695.37 598.238C1695.37 602.223 1696.27 605.387 1698.06 607.73C1699.86 610.074 1702.13 611.246 1704.86 611.246C1706.7 611.246 1708.36 610.66 1709.84 609.488C1711.37 608.277 1712.44 606.891 1713.06 605.328L1716.93 606.559C1716.11 608.902 1714.61 610.914 1712.42 612.594C1710.27 614.234 1707.75 615.055 1704.86 615.055C1700.68 615.055 1697.28 613.531 1694.67 610.484C1692.09 607.438 1690.8 603.355 1690.8 598.238ZM1722.13 614V582.477H1726.46V587.047C1727.09 585.641 1728.12 584.352 1729.57 583.18C1731.01 582.008 1732.87 581.422 1735.13 581.422C1736.81 581.422 1738.3 581.695 1739.59 582.242V586.344C1738.18 585.797 1736.7 585.523 1735.13 585.523C1732.48 585.523 1730.41 586.52 1728.92 588.512C1727.44 590.504 1726.7 593.141 1726.7 596.422V614H1722.13ZM1741.09 598.004C1741.09 593.082 1742.42 589.098 1745.07 586.051C1747.73 582.965 1751.17 581.422 1755.39 581.422C1759.68 581.422 1763.06 582.926 1765.52 585.934C1767.98 588.902 1769.21 592.711 1769.21 597.359C1769.21 597.906 1769.17 598.688 1769.1 599.703H1745.66C1745.66 602.867 1746.54 605.582 1748.3 607.848C1750.05 610.113 1752.5 611.246 1755.62 611.246C1757.65 611.246 1759.45 610.777 1761.01 609.84C1762.57 608.863 1763.78 607.574 1764.64 605.973L1768.51 607.145C1767.53 609.449 1765.95 611.344 1763.76 612.828C1761.58 614.312 1758.86 615.055 1755.62 615.055C1751.25 615.055 1747.73 613.492 1745.07 610.367C1742.42 607.242 1741.09 603.121 1741.09 598.004ZM1745.78 596.246H1764.64C1764.64 593.16 1763.8 590.562 1762.12 588.453C1760.44 586.305 1758.2 585.23 1755.39 585.23C1752.53 585.23 1750.23 586.324 1748.47 588.512C1746.75 590.699 1745.85 593.277 1745.78 596.246ZM1773.35 598.004C1773.35 593.082 1774.68 589.098 1777.34 586.051C1779.99 582.965 1783.43 581.422 1787.65 581.422C1791.95 581.422 1795.33 582.926 1797.79 585.934C1800.25 588.902 1801.48 592.711 1801.48 597.359C1801.48 597.906 1801.44 598.688 1801.36 599.703H1777.92C1777.92 602.867 1778.8 605.582 1780.56 607.848C1782.32 610.113 1784.76 611.246 1787.88 611.246C1789.92 611.246 1791.71 610.777 1793.28 609.84C1794.84 608.863 1796.05 607.574 1796.91 605.973L1800.78 607.145C1799.8 609.449 1798.22 611.344 1796.03 612.828C1793.84 614.312 1791.13 615.055 1787.88 615.055C1783.51 615.055 1779.99 613.492 1777.34 610.367C1774.68 607.242 1773.35 603.121 1773.35 598.004ZM1778.04 596.246H1796.91C1796.91 593.16 1796.07 590.562 1794.39 588.453C1792.71 586.305 1790.46 585.23 1787.65 585.23C1784.8 585.23 1782.49 586.324 1780.74 588.512C1779.02 590.699 1778.12 593.277 1778.04 596.246ZM1807.73 614V582.477H1812.18V587.867H1812.24C1812.71 586.305 1813.86 584.84 1815.7 583.473C1817.53 582.105 1819.72 581.422 1822.26 581.422C1825.19 581.422 1827.59 582.34 1829.46 584.176C1831.38 586.012 1832.34 589.156 1832.34 593.609V614H1827.77V594.371C1827.77 588.277 1825.58 585.23 1821.2 585.23C1818.78 585.23 1816.69 586.207 1814.93 588.16C1813.18 590.113 1812.3 592.457 1812.3 595.191V614H1807.73ZM1854.56 614V568.473H1859.01V588.102C1859.56 586.461 1860.71 584.938 1862.47 583.531C1864.23 582.125 1866.28 581.422 1868.62 581.422C1872.53 581.422 1875.71 582.926 1878.17 585.934C1880.63 588.902 1881.86 592.984 1881.86 598.18C1881.86 601.07 1881.45 603.648 1880.63 605.914C1879.85 608.141 1878.8 609.898 1877.47 611.188C1876.18 612.477 1874.77 613.434 1873.25 614.059C1871.77 614.723 1870.22 615.055 1868.62 615.055C1866.4 615.055 1864.42 614.41 1862.7 613.121C1860.99 611.793 1859.75 610.211 1859.01 608.375V614H1854.56ZM1858.9 598.18C1858.9 602.164 1859.77 605.348 1861.53 607.73C1863.33 610.074 1865.5 611.246 1868.04 611.246C1870.73 611.246 1872.94 610.094 1874.66 607.789C1876.41 605.445 1877.29 602.242 1877.29 598.18C1877.29 594.234 1876.43 591.09 1874.72 588.746C1873 586.402 1870.77 585.23 1868.04 585.23C1865.5 585.23 1863.33 586.402 1861.53 588.746C1859.77 591.09 1858.9 594.234 1858.9 598.18ZM1885.42 614V610.953L1903.82 586.285H1887.06V582.477H1909.67V585.348L1891.16 610.191H1910.14V614H1885.42ZM1911.59 582.477H1916.63L1921.26 602.047C1922.23 606.539 1922.8 609.137 1922.95 609.84H1923.19C1923.38 608.902 1923.7 607.555 1924.13 605.797C1924.56 604.039 1924.85 602.789 1925.01 602.047L1929.81 582.477H1935.2L1940.06 602.281C1940.22 602.945 1940.49 604.098 1940.88 605.738C1941.28 607.379 1941.59 608.746 1941.82 609.84H1942.06C1942.17 609.371 1942.74 606.773 1943.76 602.047L1948.38 582.477H1953.42L1944.75 614H1939.07L1934.32 595.016C1933.27 590.25 1932.7 587.672 1932.62 587.281H1932.39C1931.45 591.695 1930.88 594.273 1930.69 595.016L1925.94 614H1920.26L1911.59 582.477ZM1959.55 614V607.027H1966.94V614H1959.55ZM1988.99 598.18C1988.99 592.984 1990.24 588.902 1992.74 585.934C1995.24 582.926 1998.4 581.422 2002.23 581.422C2004.53 581.422 2006.52 582.086 2008.2 583.414C2009.92 584.742 2011.13 586.266 2011.84 587.984V568.473H2016.29V614H2011.95V608.316C2011.13 610.27 2009.86 611.891 2008.15 613.18C2006.47 614.43 2004.49 615.055 2002.23 615.055C2000.63 615.055 1999.06 614.723 1997.54 614.059C1996.06 613.434 1994.65 612.496 1993.32 611.246C1992.03 609.957 1990.98 608.199 1990.16 605.973C1989.38 603.707 1988.99 601.109 1988.99 598.18ZM1993.56 598.18C1993.56 602.125 1994.41 605.289 1996.13 607.672C1997.85 610.055 2000.08 611.246 2002.81 611.246C2005.35 611.246 2007.5 610.074 2009.26 607.73C2011.06 605.348 2011.95 602.164 2011.95 598.18C2011.95 594.234 2011.06 591.09 2009.26 588.746C2007.5 586.402 2005.35 585.23 2002.81 585.23C2000.04 585.23 1997.79 586.422 1996.08 588.805C1994.4 591.148 1993.56 594.273 1993.56 598.18ZM2027.46 605.914C2027.46 607.398 2028.09 608.668 2029.34 609.723C2030.59 610.738 2032.3 611.246 2034.49 611.246C2037.26 611.246 2039.63 610.348 2041.58 608.551C2043.57 606.754 2044.57 604.469 2044.57 601.695V597.301C2042.85 597.73 2040.12 598.238 2036.37 598.824C2033.32 599.371 2031.07 600.211 2029.63 601.344C2028.18 602.477 2027.46 604 2027.46 605.914ZM2022.89 606.266C2022.89 600.406 2027.42 596.773 2036.48 595.367C2040.55 594.703 2043.24 594.156 2044.57 593.727V591.91C2044.57 589.957 2043.87 588.336 2042.46 587.047C2041.05 585.758 2039.06 585.113 2036.48 585.113C2034.61 585.113 2032.79 585.562 2031.03 586.461C2029.32 587.32 2027.85 588.492 2026.64 589.977L2023.71 587.516C2025.27 585.719 2027.15 584.254 2029.34 583.121C2031.56 581.988 2033.91 581.422 2036.37 581.422C2044.8 581.422 2049.02 585.543 2049.02 593.785V614H2044.69V608.844C2044.06 610.523 2042.77 611.988 2040.82 613.238C2038.87 614.449 2036.56 615.055 2033.91 615.055C2030.43 615.055 2027.71 614.234 2025.76 612.594C2023.85 610.953 2022.89 608.844 2022.89 606.266ZM2054.63 607.789L2058.03 605.797C2060.33 609.43 2063.45 611.246 2067.4 611.246C2069.78 611.246 2071.68 610.816 2073.08 609.957C2074.53 609.098 2075.25 607.848 2075.25 606.207C2075.25 605.504 2075.08 604.879 2074.72 604.332C2074.37 603.746 2073.98 603.277 2073.55 602.926C2073.16 602.535 2072.44 602.125 2071.38 601.695C2070.33 601.227 2069.45 600.895 2068.75 600.699C2068.08 600.465 2066.97 600.094 2065.41 599.586C2064.04 599.156 2062.87 598.727 2061.89 598.297C2060.92 597.867 2059.9 597.301 2058.85 596.598C2057.79 595.855 2056.97 594.957 2056.38 593.902C2055.84 592.848 2055.56 591.637 2055.56 590.27C2055.56 587.652 2056.62 585.523 2058.73 583.883C2060.84 582.242 2063.73 581.422 2067.4 581.422C2069.98 581.422 2072.34 582.105 2074.49 583.473C2076.64 584.84 2078.18 586.441 2079.12 588.277L2076.07 590.27C2075.25 588.902 2074.06 587.73 2072.5 586.754C2070.97 585.738 2069.28 585.23 2067.4 585.23C2065.02 585.23 2063.2 585.699 2061.95 586.637C2060.74 587.535 2060.13 588.766 2060.13 590.328C2060.13 591.227 2060.37 592.047 2060.84 592.789C2061.31 593.492 2062.01 594.117 2062.95 594.664C2063.92 595.172 2064.8 595.582 2065.58 595.895C2066.4 596.168 2067.48 596.52 2068.81 596.949C2069.94 597.301 2070.94 597.633 2071.79 597.945C2072.69 598.258 2073.67 598.688 2074.72 599.234C2075.78 599.781 2076.66 600.367 2077.36 600.992C2078.06 601.578 2078.65 602.34 2079.12 603.277C2079.59 604.176 2079.82 605.152 2079.82 606.207C2079.82 608.707 2078.71 610.816 2076.48 612.535C2074.29 614.215 2071.27 615.055 2067.4 615.055C2064.59 615.055 2062.09 614.43 2059.9 613.18C2057.71 611.891 2055.95 610.094 2054.63 607.789ZM2097.77 592.086C2097.77 585.289 2099.47 579.762 2102.87 575.504C2106.3 571.207 2110.97 569.059 2116.87 569.059C2118.86 569.059 2120.72 569.371 2122.44 569.996C2124.15 570.582 2125.58 571.383 2126.71 572.398C2127.89 573.414 2128.84 574.41 2129.58 575.387C2130.37 576.324 2131.01 577.32 2131.52 578.375L2127.53 579.781C2124.76 575.289 2121.21 573.043 2116.87 573.043C2112.38 573.043 2108.86 574.801 2106.32 578.316C2103.82 581.793 2102.57 586.383 2102.57 592.086C2102.57 598.023 2103.86 602.672 2106.44 606.031C2109.02 609.352 2112.42 611.012 2116.64 611.012C2120.46 611.012 2123.41 609.762 2125.48 607.262C2127.55 604.762 2128.59 601.812 2128.59 598.414V594.312H2116.17V590.328H2133.16V614H2129.76L2129.41 607.555C2127.1 612.555 2122.81 615.055 2116.52 615.055C2110.93 615.055 2106.4 613.004 2102.92 608.902C2099.49 604.801 2097.77 599.195 2097.77 592.086ZM2141.75 614V568.473H2146.2V614H2141.75ZM2157.73 605.914C2157.73 607.398 2158.35 608.668 2159.6 609.723C2160.85 610.738 2162.57 611.246 2164.76 611.246C2167.53 611.246 2169.89 610.348 2171.85 608.551C2173.84 606.754 2174.84 604.469 2174.84 601.695V597.301C2173.12 597.73 2170.38 598.238 2166.63 598.824C2163.59 599.371 2161.34 600.211 2159.89 601.344C2158.45 602.477 2157.73 604 2157.73 605.914ZM2153.16 606.266C2153.16 600.406 2157.69 596.773 2166.75 595.367C2170.81 594.703 2173.51 594.156 2174.84 593.727V591.91C2174.84 589.957 2174.13 588.336 2172.73 587.047C2171.32 585.758 2169.33 585.113 2166.75 585.113C2164.87 585.113 2163.06 585.562 2161.3 586.461C2159.58 587.32 2158.12 588.492 2156.91 589.977L2153.98 587.516C2155.54 585.719 2157.41 584.254 2159.6 583.121C2161.83 581.988 2164.17 581.422 2166.63 581.422C2175.07 581.422 2179.29 585.543 2179.29 593.785V614H2174.95V608.844C2174.33 610.523 2173.04 611.988 2171.09 613.238C2169.13 614.449 2166.83 615.055 2164.17 615.055C2160.69 615.055 2157.98 614.234 2156.03 612.594C2154.11 610.953 2153.16 608.844 2153.16 606.266ZM2184.89 607.789L2188.29 605.797C2190.6 609.43 2193.72 611.246 2197.67 611.246C2200.05 611.246 2201.94 610.816 2203.35 609.957C2204.79 609.098 2205.52 607.848 2205.52 606.207C2205.52 605.504 2205.34 604.879 2204.99 604.332C2204.64 603.746 2204.25 603.277 2203.82 602.926C2203.43 602.535 2202.7 602.125 2201.65 601.695C2200.6 601.227 2199.72 600.895 2199.01 600.699C2198.35 600.465 2197.24 600.094 2195.67 599.586C2194.31 599.156 2193.13 598.727 2192.16 598.297C2191.18 597.867 2190.17 597.301 2189.11 596.598C2188.06 595.855 2187.24 594.957 2186.65 593.902C2186.1 592.848 2185.83 591.637 2185.83 590.27C2185.83 587.652 2186.88 585.523 2188.99 583.883C2191.1 582.242 2193.99 581.422 2197.67 581.422C2200.24 581.422 2202.61 582.105 2204.76 583.473C2206.9 584.84 2208.45 586.441 2209.38 588.277L2206.34 590.27C2205.52 588.902 2204.33 587.73 2202.76 586.754C2201.24 585.738 2199.54 585.23 2197.67 585.23C2195.28 585.23 2193.47 585.699 2192.22 586.637C2191.01 587.535 2190.4 588.766 2190.4 590.328C2190.4 591.227 2190.63 592.047 2191.1 592.789C2191.57 593.492 2192.28 594.117 2193.21 594.664C2194.19 595.172 2195.07 595.582 2195.85 595.895C2196.67 596.168 2197.74 596.52 2199.07 596.949C2200.2 597.301 2201.2 597.633 2202.06 597.945C2202.96 598.258 2203.94 598.688 2204.99 599.234C2206.04 599.781 2206.92 600.367 2207.63 600.992C2208.33 601.578 2208.92 602.34 2209.38 603.277C2209.85 604.176 2210.09 605.152 2210.09 606.207C2210.09 608.707 2208.97 610.816 2206.75 612.535C2204.56 614.215 2201.53 615.055 2197.67 615.055C2194.85 615.055 2192.35 614.43 2190.17 613.18C2187.98 611.891 2186.22 610.094 2184.89 607.789ZM2230.14 614V568.473H2234.71V598.297L2248.42 582.477H2254.4L2243.15 595.074L2255.69 614H2250.18L2240.22 598.238L2234.71 604.391V614H2230.14ZM2261.47 605.914C2261.47 607.398 2262.09 608.668 2263.34 609.723C2264.59 610.738 2266.31 611.246 2268.5 611.246C2271.27 611.246 2273.64 610.348 2275.59 608.551C2277.58 606.754 2278.58 604.469 2278.58 601.695V597.301C2276.86 597.73 2274.13 598.238 2270.38 598.824C2267.33 599.371 2265.08 600.211 2263.64 601.344C2262.19 602.477 2261.47 604 2261.47 605.914ZM2256.9 606.266C2256.9 600.406 2261.43 596.773 2270.49 595.367C2274.56 594.703 2277.25 594.156 2278.58 593.727V591.91C2278.58 589.957 2277.88 588.336 2276.47 587.047C2275.06 585.758 2273.07 585.113 2270.49 585.113C2268.62 585.113 2266.8 585.562 2265.04 586.461C2263.32 587.32 2261.86 588.492 2260.65 589.977L2257.72 587.516C2259.28 585.719 2261.16 584.254 2263.34 583.121C2265.57 581.988 2267.91 581.422 2270.38 581.422C2278.81 581.422 2283.03 585.543 2283.03 593.785V614H2278.7V608.844C2278.07 610.523 2276.78 611.988 2274.83 613.238C2272.88 614.449 2270.57 615.055 2267.91 615.055C2264.44 615.055 2261.72 614.234 2259.77 612.594C2257.86 610.953 2256.9 608.844 2256.9 606.266ZM2291.21 614V582.477H2295.67V587.867H2295.73C2296.19 586.305 2297.35 584.84 2299.18 583.473C2301.02 582.105 2303.21 581.422 2305.75 581.422C2308.68 581.422 2311.08 582.34 2312.95 584.176C2314.87 586.012 2315.82 589.156 2315.82 593.609V614H2311.25V594.371C2311.25 588.277 2309.07 585.23 2304.69 585.23C2302.27 585.23 2300.18 586.207 2298.42 588.16C2296.66 590.113 2295.78 592.457 2295.78 595.191V614H2291.21ZM2323.95 614V582.477H2328.4V587.867H2328.46C2328.93 586.305 2330.08 584.84 2331.92 583.473C2333.75 582.105 2335.94 581.422 2338.48 581.422C2341.41 581.422 2343.81 582.34 2345.69 584.176C2347.6 586.012 2348.56 589.156 2348.56 593.609V614H2343.99V594.371C2343.99 588.277 2341.8 585.23 2337.42 585.23C2335 585.23 2332.91 586.207 2331.15 588.16C2329.4 590.113 2328.52 592.457 2328.52 595.191V614H2323.95ZM1228.15 673.004C1228.15 668.082 1229.48 664.098 1232.13 661.051C1234.79 657.965 1238.23 656.422 1242.44 656.422C1246.74 656.422 1250.12 657.926 1252.58 660.934C1255.04 663.902 1256.27 667.711 1256.27 672.359C1256.27 672.906 1256.23 673.688 1256.16 674.703H1232.72C1232.72 677.867 1233.6 680.582 1235.35 682.848C1237.11 685.113 1239.55 686.246 1242.68 686.246C1244.71 686.246 1246.51 685.777 1248.07 684.84C1249.63 683.863 1250.84 682.574 1251.7 680.973L1255.57 682.145C1254.59 684.449 1253.01 686.344 1250.82 687.828C1248.64 689.312 1245.92 690.055 1242.68 690.055C1238.3 690.055 1234.79 688.492 1232.13 685.367C1229.48 682.242 1228.15 678.121 1228.15 673.004ZM1232.84 671.246H1251.7C1251.7 668.16 1250.86 665.562 1249.18 663.453C1247.5 661.305 1245.26 660.23 1242.44 660.23C1239.59 660.23 1237.29 661.324 1235.53 663.512C1233.81 665.699 1232.91 668.277 1232.84 671.246ZM1262.99 650.387V644.469H1268.73V650.387H1262.99ZM1263.69 689V657.477H1268.15V689H1263.69ZM1277.73 689V657.477H1282.19V662.867H1282.25C1282.71 661.305 1283.87 659.84 1285.7 658.473C1287.54 657.105 1289.73 656.422 1292.27 656.422C1295.2 656.422 1297.6 657.34 1299.47 659.176C1301.39 661.012 1302.34 664.156 1302.34 668.609V689H1297.77V669.371C1297.77 663.277 1295.59 660.23 1291.21 660.23C1288.79 660.23 1286.7 661.207 1284.94 663.16C1283.18 665.113 1282.3 667.457 1282.3 670.191V689H1277.73ZM1312.93 672.652C1312.93 676.363 1313.75 679.371 1315.39 681.676C1317.03 683.941 1319.18 685.074 1321.83 685.074C1324.53 685.074 1326.66 683.98 1328.22 681.793C1329.82 679.605 1330.62 676.539 1330.62 672.594C1330.62 668.766 1329.8 665.758 1328.16 663.57C1326.56 661.344 1324.49 660.23 1321.95 660.23C1319.22 660.23 1317.03 661.402 1315.39 663.746C1313.75 666.051 1312.93 669.02 1312.93 672.652ZM1308.36 672.711C1308.36 667.828 1309.57 663.902 1311.99 660.934C1314.41 657.926 1317.54 656.422 1321.37 656.422C1323.79 656.422 1325.76 657.047 1327.28 658.297C1328.85 659.547 1329.96 660.992 1330.62 662.633V657.477H1335.08V685.309C1335.08 691.285 1334 695.719 1331.85 698.609C1329.74 701.539 1326.37 703.004 1321.72 703.004C1316.68 703.004 1312.77 701.09 1310 697.262L1313.16 695.211C1315.58 697.945 1318.47 699.312 1321.83 699.312C1324.61 699.312 1326.76 698.219 1328.28 696.031C1329.84 693.883 1330.62 690.992 1330.62 687.359V682.848C1329.8 684.605 1328.61 686.051 1327.05 687.184C1325.53 688.316 1323.67 688.883 1321.48 688.883C1317.5 688.883 1314.31 687.379 1311.93 684.371C1309.55 681.324 1308.36 677.438 1308.36 672.711ZM1341.62 673.004C1341.62 668.082 1342.95 664.098 1345.6 661.051C1348.26 657.965 1351.7 656.422 1355.91 656.422C1360.21 656.422 1363.59 657.926 1366.05 660.934C1368.51 663.902 1369.74 667.711 1369.74 672.359C1369.74 672.906 1369.7 673.688 1369.63 674.703H1346.19C1346.19 677.867 1347.07 680.582 1348.82 682.848C1350.58 685.113 1353.02 686.246 1356.15 686.246C1358.18 686.246 1359.98 685.777 1361.54 684.84C1363.1 683.863 1364.31 682.574 1365.17 680.973L1369.04 682.145C1368.06 684.449 1366.48 686.344 1364.29 687.828C1362.11 689.312 1359.39 690.055 1356.15 690.055C1351.77 690.055 1348.26 688.492 1345.6 685.367C1342.95 682.242 1341.62 678.121 1341.62 673.004ZM1346.31 671.246H1365.17C1365.17 668.16 1364.33 665.562 1362.65 663.453C1360.97 661.305 1358.73 660.23 1355.91 660.23C1353.06 660.23 1350.76 661.324 1349 663.512C1347.28 665.699 1346.38 668.277 1346.31 671.246ZM1373.41 682.789L1376.81 680.797C1379.12 684.43 1382.24 686.246 1386.19 686.246C1388.57 686.246 1390.46 685.816 1391.87 684.957C1393.32 684.098 1394.04 682.848 1394.04 681.207C1394.04 680.504 1393.86 679.879 1393.51 679.332C1393.16 678.746 1392.77 678.277 1392.34 677.926C1391.95 677.535 1391.23 677.125 1390.17 676.695C1389.12 676.227 1388.24 675.895 1387.53 675.699C1386.87 675.465 1385.76 675.094 1384.19 674.586C1382.83 674.156 1381.66 673.727 1380.68 673.297C1379.7 672.867 1378.69 672.301 1377.63 671.598C1376.58 670.855 1375.76 669.957 1375.17 668.902C1374.62 667.848 1374.35 666.637 1374.35 665.27C1374.35 662.652 1375.41 660.523 1377.51 658.883C1379.62 657.242 1382.51 656.422 1386.19 656.422C1388.76 656.422 1391.13 657.105 1393.28 658.473C1395.42 659.84 1396.97 661.441 1397.91 663.277L1394.86 665.27C1394.04 663.902 1392.85 662.73 1391.28 661.754C1389.76 660.738 1388.06 660.23 1386.19 660.23C1383.8 660.23 1381.99 660.699 1380.74 661.637C1379.53 662.535 1378.92 663.766 1378.92 665.328C1378.92 666.227 1379.16 667.047 1379.62 667.789C1380.09 668.492 1380.8 669.117 1381.73 669.664C1382.71 670.172 1383.59 670.582 1384.37 670.895C1385.19 671.168 1386.26 671.52 1387.59 671.949C1388.73 672.301 1389.72 672.633 1390.58 672.945C1391.48 673.258 1392.46 673.688 1393.51 674.234C1394.57 674.781 1395.44 675.367 1396.15 675.992C1396.85 676.578 1397.44 677.34 1397.91 678.277C1398.37 679.176 1398.61 680.152 1398.61 681.207C1398.61 683.707 1397.5 685.816 1395.27 687.535C1393.08 689.215 1390.05 690.055 1386.19 690.055C1383.37 690.055 1380.87 689.43 1378.69 688.18C1376.5 686.891 1374.74 685.094 1373.41 682.789ZM1402.34 673.238C1402.34 668.238 1403.61 664.195 1406.15 661.109C1408.69 657.984 1412.1 656.422 1416.4 656.422C1419.21 656.422 1421.61 657.242 1423.61 658.883C1425.64 660.484 1426.99 662.398 1427.65 664.625L1423.78 665.738C1423.2 664.176 1422.24 662.867 1420.91 661.812C1419.62 660.758 1418.12 660.23 1416.4 660.23C1413.51 660.23 1411.2 661.461 1409.49 663.922C1407.77 666.383 1406.91 669.488 1406.91 673.238C1406.91 677.223 1407.81 680.387 1409.6 682.73C1411.4 685.074 1413.67 686.246 1416.4 686.246C1418.24 686.246 1419.9 685.66 1421.38 684.488C1422.9 683.277 1423.98 681.891 1424.6 680.328L1428.47 681.559C1427.65 683.902 1426.15 685.914 1423.96 687.594C1421.81 689.234 1419.29 690.055 1416.4 690.055C1412.22 690.055 1408.82 688.531 1406.2 685.484C1403.63 682.438 1402.34 678.355 1402.34 673.238ZM1434.02 689V643.473H1438.47V662.574H1438.59C1439.37 660.895 1440.62 659.449 1442.34 658.238C1444.09 657.027 1446.09 656.422 1448.31 656.422C1455.11 656.422 1458.51 660.484 1458.51 668.609V689H1454.05V669.371C1454.05 663.277 1451.87 660.23 1447.49 660.23C1445.07 660.23 1442.96 661.227 1441.16 663.219C1439.37 665.211 1438.47 667.574 1438.47 670.309V689H1434.02ZM1466.69 689V657.477H1471.14V662.223C1471.69 660.777 1472.72 659.449 1474.25 658.238C1475.77 657.027 1477.71 656.422 1480.05 656.422C1482.35 656.422 1484.11 657.086 1485.32 658.414C1486.53 659.703 1487.47 661.383 1488.14 663.453C1488.33 662.945 1488.64 662.359 1489.07 661.695C1489.5 661.031 1490.11 660.27 1490.89 659.41C1491.67 658.551 1492.71 657.848 1493.99 657.301C1495.32 656.715 1496.77 656.422 1498.33 656.422C1504.42 656.422 1507.47 660.484 1507.47 668.609V689H1502.9V668.961C1502.9 666.07 1502.51 663.902 1501.73 662.457C1500.95 660.973 1499.46 660.23 1497.28 660.23C1495.01 660.23 1493.12 661.188 1491.59 663.102C1490.07 664.977 1489.31 667.359 1489.31 670.25V689H1484.85V668.902C1484.85 663.121 1482.94 660.23 1479.11 660.23C1476.73 660.23 1474.81 661.129 1473.37 662.926C1471.96 664.723 1471.26 667.066 1471.26 669.957V689H1466.69ZM1518.06 673.238C1518.06 677.223 1518.97 680.387 1520.81 682.73C1522.65 685.074 1524.93 686.246 1527.66 686.246C1530.36 686.246 1532.63 685.074 1534.46 682.73C1536.34 680.387 1537.27 677.223 1537.27 673.238C1537.27 669.176 1536.34 665.992 1534.46 663.688C1532.59 661.383 1530.32 660.23 1527.66 660.23C1524.97 660.23 1522.68 661.383 1520.81 663.688C1518.97 665.992 1518.06 669.176 1518.06 673.238ZM1513.49 673.238C1513.49 668.434 1514.72 664.43 1517.18 661.227C1519.68 658.023 1523.17 656.422 1527.66 656.422C1532.12 656.422 1535.59 658.023 1538.09 661.227C1540.59 664.43 1541.84 668.434 1541.84 673.238C1541.84 675.27 1541.57 677.242 1541.02 679.156C1540.52 681.07 1539.72 682.867 1538.62 684.547C1537.57 686.188 1536.08 687.516 1534.17 688.531C1532.29 689.547 1530.13 690.055 1527.66 690.055C1525.24 690.055 1523.07 689.566 1521.16 688.59C1519.29 687.574 1517.8 686.246 1516.71 684.605C1515.65 682.926 1514.85 681.129 1514.31 679.215C1513.76 677.301 1513.49 675.309 1513.49 673.238ZM1548.91 689V643.473H1553.37V689H1548.91ZM1559.73 689V685.953L1578.13 661.285H1561.37V657.477H1583.99V660.348L1565.47 685.191H1584.46V689H1559.73ZM1588.01 673.004C1588.01 668.082 1589.34 664.098 1592 661.051C1594.65 657.965 1598.09 656.422 1602.31 656.422C1606.61 656.422 1609.98 657.926 1612.45 660.934C1614.91 663.902 1616.14 667.711 1616.14 672.359C1616.14 672.906 1616.1 673.688 1616.02 674.703H1592.58C1592.58 677.867 1593.46 680.582 1595.22 682.848C1596.98 685.113 1599.42 686.246 1602.54 686.246C1604.57 686.246 1606.37 685.777 1607.93 684.84C1609.5 683.863 1610.71 682.574 1611.57 680.973L1615.43 682.145C1614.46 684.449 1612.88 686.344 1610.69 687.828C1608.5 689.312 1605.79 690.055 1602.54 690.055C1598.17 690.055 1594.65 688.492 1592 685.367C1589.34 682.242 1588.01 678.121 1588.01 673.004ZM1592.7 671.246H1611.57C1611.57 668.16 1610.73 665.562 1609.05 663.453C1607.37 661.305 1605.12 660.23 1602.31 660.23C1599.46 660.23 1597.15 661.324 1595.39 663.512C1593.68 665.699 1592.78 668.277 1592.7 671.246ZM1622.39 689V657.477H1626.84V662.867H1626.9C1627.37 661.305 1628.52 659.84 1630.35 658.473C1632.19 657.105 1634.38 656.422 1636.92 656.422C1639.85 656.422 1642.25 657.34 1644.12 659.176C1646.04 661.012 1646.99 664.156 1646.99 668.609V689H1642.42V669.371C1642.42 663.277 1640.24 660.23 1635.86 660.23C1633.44 660.23 1631.35 661.207 1629.59 663.16C1627.83 665.113 1626.96 667.457 1626.96 670.191V689H1622.39ZM1664.65 657.477H1669.69L1674.32 677.047C1675.29 681.539 1675.86 684.137 1676.01 684.84H1676.25C1676.44 683.902 1676.76 682.555 1677.19 680.797C1677.62 679.039 1677.91 677.789 1678.07 677.047L1682.87 657.477H1688.26L1693.12 677.281C1693.28 677.945 1693.55 679.098 1693.94 680.738C1694.34 682.379 1694.65 683.746 1694.88 684.84H1695.12C1695.23 684.371 1695.8 681.773 1696.82 677.047L1701.44 657.477H1706.48L1697.81 689H1692.13L1687.38 670.016C1686.33 665.25 1685.76 662.672 1685.68 662.281H1685.45C1684.51 666.695 1683.94 669.273 1683.75 670.016L1679 689H1673.32L1664.65 657.477ZM1708.57 673.004C1708.57 668.082 1709.9 664.098 1712.56 661.051C1715.21 657.965 1718.65 656.422 1722.87 656.422C1727.17 656.422 1730.54 657.926 1733.01 660.934C1735.47 663.902 1736.7 667.711 1736.7 672.359C1736.7 672.906 1736.66 673.688 1736.58 674.703H1713.14C1713.14 677.867 1714.02 680.582 1715.78 682.848C1717.54 685.113 1719.98 686.246 1723.1 686.246C1725.13 686.246 1726.93 685.777 1728.49 684.84C1730.06 683.863 1731.27 682.574 1732.13 680.973L1735.99 682.145C1735.02 684.449 1733.44 686.344 1731.25 687.828C1729.06 689.312 1726.35 690.055 1723.1 690.055C1718.73 690.055 1715.21 688.492 1712.56 685.367C1709.9 682.242 1708.57 678.121 1708.57 673.004ZM1713.26 671.246H1732.13C1732.13 668.16 1731.29 665.562 1729.61 663.453C1727.93 661.305 1725.68 660.23 1722.87 660.23C1720.02 660.23 1717.71 661.324 1715.95 663.512C1714.24 665.699 1713.34 668.277 1713.26 671.246ZM1742.95 689V657.477H1747.28V662.047C1747.91 660.641 1748.94 659.352 1750.39 658.18C1751.83 657.008 1753.69 656.422 1755.95 656.422C1757.63 656.422 1759.12 656.695 1760.41 657.242V661.344C1759 660.797 1757.52 660.523 1755.95 660.523C1753.3 660.523 1751.23 661.52 1749.74 663.512C1748.26 665.504 1747.52 668.141 1747.52 671.422V689H1742.95ZM1761.91 673.18C1761.91 667.984 1763.16 663.902 1765.66 660.934C1768.16 657.926 1771.32 656.422 1775.15 656.422C1777.46 656.422 1779.45 657.086 1781.13 658.414C1782.85 659.742 1784.06 661.266 1784.76 662.984V643.473H1789.21V689H1784.88V683.316C1784.06 685.27 1782.79 686.891 1781.07 688.18C1779.39 689.43 1777.42 690.055 1775.15 690.055C1773.55 690.055 1771.99 689.723 1770.46 689.059C1768.98 688.434 1767.57 687.496 1766.24 686.246C1764.96 684.957 1763.9 683.199 1763.08 680.973C1762.3 678.707 1761.91 676.109 1761.91 673.18ZM1766.48 673.18C1766.48 677.125 1767.34 680.289 1769.06 682.672C1770.78 685.055 1773 686.246 1775.74 686.246C1778.28 686.246 1780.42 685.074 1782.18 682.73C1783.98 680.348 1784.88 677.164 1784.88 673.18C1784.88 669.234 1783.98 666.09 1782.18 663.746C1780.42 661.402 1778.28 660.23 1775.74 660.23C1772.96 660.23 1770.72 661.422 1769 663.805C1767.32 666.148 1766.48 669.273 1766.48 673.18ZM1795.93 673.004C1795.93 668.082 1797.26 664.098 1799.91 661.051C1802.57 657.965 1806.01 656.422 1810.23 656.422C1814.52 656.422 1817.9 657.926 1820.36 660.934C1822.83 663.902 1824.06 667.711 1824.06 672.359C1824.06 672.906 1824.02 673.688 1823.94 674.703H1800.5C1800.5 677.867 1801.38 680.582 1803.14 682.848C1804.9 685.113 1807.34 686.246 1810.46 686.246C1812.49 686.246 1814.29 685.777 1815.85 684.84C1817.41 683.863 1818.63 682.574 1819.49 680.973L1823.35 682.145C1822.38 684.449 1820.79 686.344 1818.61 687.828C1816.42 689.312 1813.7 690.055 1810.46 690.055C1806.09 690.055 1802.57 688.492 1799.91 685.367C1797.26 682.242 1795.93 678.121 1795.93 673.004ZM1800.62 671.246H1819.49C1819.49 668.16 1818.65 665.562 1816.97 663.453C1815.29 661.305 1813.04 660.23 1810.23 660.23C1807.38 660.23 1805.07 661.324 1803.31 663.512C1801.59 665.699 1800.7 668.277 1800.62 671.246ZM1830.3 689V657.477H1834.76V662.867H1834.82C1835.28 661.305 1836.44 659.84 1838.27 658.473C1840.11 657.105 1842.3 656.422 1844.84 656.422C1847.76 656.422 1850.17 657.34 1852.04 659.176C1853.96 661.012 1854.91 664.156 1854.91 668.609V689H1850.34V669.371C1850.34 663.277 1848.16 660.23 1843.78 660.23C1841.36 660.23 1839.27 661.207 1837.51 663.16C1835.75 665.113 1834.87 667.457 1834.87 670.191V689H1830.3ZM1876.43 677.926V657.477H1881V676.988C1881 683.16 1883.27 686.246 1887.8 686.246C1890.57 686.246 1892.68 685.172 1894.13 683.023C1895.61 680.875 1896.36 678.336 1896.36 675.406V657.477H1900.81V689H1896.47V683.902C1896.16 685.191 1895.18 686.539 1893.54 687.945C1891.94 689.352 1889.68 690.055 1886.75 690.055C1883.74 690.055 1881.26 689.039 1879.3 687.008C1877.39 684.938 1876.43 681.91 1876.43 677.926ZM1909.34 689V657.477H1913.8V662.867H1913.85C1914.32 661.305 1915.47 659.84 1917.31 658.473C1919.15 657.105 1921.33 656.422 1923.87 656.422C1926.8 656.422 1929.21 657.34 1931.08 659.176C1932.99 661.012 1933.95 664.156 1933.95 668.609V689H1929.38V669.371C1929.38 663.277 1927.19 660.23 1922.82 660.23C1920.4 660.23 1918.31 661.207 1916.55 663.16C1914.79 665.113 1913.91 667.457 1913.91 670.191V689H1909.34ZM1939.97 673.18C1939.97 667.984 1941.22 663.902 1943.72 660.934C1946.22 657.926 1949.38 656.422 1953.21 656.422C1955.51 656.422 1957.5 657.086 1959.18 658.414C1960.9 659.742 1962.11 661.266 1962.82 662.984V643.473H1967.27V689H1962.93V683.316C1962.11 685.27 1960.84 686.891 1959.13 688.18C1957.45 689.43 1955.47 690.055 1953.21 690.055C1951.61 690.055 1950.04 689.723 1948.52 689.059C1947.04 688.434 1945.63 687.496 1944.3 686.246C1943.01 684.957 1941.96 683.199 1941.14 680.973C1940.36 678.707 1939.97 676.109 1939.97 673.18ZM1944.54 673.18C1944.54 677.125 1945.4 680.289 1947.11 682.672C1948.83 685.055 1951.06 686.246 1953.79 686.246C1956.33 686.246 1958.48 685.074 1960.24 682.73C1962.04 680.348 1962.93 677.164 1962.93 673.18C1962.93 669.234 1962.04 666.09 1960.24 663.746C1958.48 661.402 1956.33 660.23 1953.79 660.23C1951.02 660.23 1948.77 661.422 1947.06 663.805C1945.38 666.148 1944.54 669.273 1944.54 673.18ZM1987.03 689V685.953L2005.43 661.285H1988.67V657.477H2011.29V660.348L1992.77 685.191H2011.76V689H1987.03ZM2017.07 677.926V657.477H2021.64V676.988C2021.64 683.16 2023.91 686.246 2028.44 686.246C2031.21 686.246 2033.32 685.172 2034.77 683.023C2036.25 680.875 2036.99 678.336 2036.99 675.406V657.477H2041.45V689H2037.11V683.902C2036.8 685.191 2035.82 686.539 2034.18 687.945C2032.58 689.352 2030.31 690.055 2027.38 690.055C2024.38 690.055 2021.89 689.039 2019.94 687.008C2018.03 684.938 2017.07 681.91 2017.07 677.926ZM2063.73 689V657.477H2068.18V662.867H2068.24C2068.71 661.305 2069.86 659.84 2071.7 658.473C2073.53 657.105 2075.72 656.422 2078.26 656.422C2081.19 656.422 2083.59 657.34 2085.47 659.176C2087.38 661.012 2088.34 664.156 2088.34 668.609V689H2083.77V669.371C2083.77 663.277 2081.58 660.23 2077.2 660.23C2074.78 660.23 2072.69 661.207 2070.93 663.16C2069.18 665.113 2068.3 667.457 2068.3 670.191V689H2063.73ZM2094.35 673.004C2094.35 668.082 2095.68 664.098 2098.34 661.051C2100.99 657.965 2104.43 656.422 2108.65 656.422C2112.94 656.422 2116.32 657.926 2118.78 660.934C2121.25 663.902 2122.48 667.711 2122.48 672.359C2122.48 672.906 2122.44 673.688 2122.36 674.703H2098.92C2098.92 677.867 2099.8 680.582 2101.56 682.848C2103.32 685.113 2105.76 686.246 2108.88 686.246C2110.91 686.246 2112.71 685.777 2114.27 684.84C2115.84 683.863 2117.05 682.574 2117.91 680.973L2121.77 682.145C2120.8 684.449 2119.21 686.344 2117.03 687.828C2114.84 689.312 2112.12 690.055 2108.88 690.055C2104.51 690.055 2100.99 688.492 2098.34 685.367C2095.68 682.242 2094.35 678.121 2094.35 673.004ZM2099.04 671.246H2117.91C2117.91 668.16 2117.07 665.562 2115.39 663.453C2113.71 661.305 2111.46 660.23 2108.65 660.23C2105.8 660.23 2103.49 661.324 2101.73 663.512C2100.01 665.699 2099.12 668.277 2099.04 671.246ZM2128.37 677.926V657.477H2132.94V676.988C2132.94 683.16 2135.21 686.246 2139.74 686.246C2142.51 686.246 2144.62 685.172 2146.07 683.023C2147.55 680.875 2148.29 678.336 2148.29 675.406V657.477H2152.75V689H2148.41V683.902C2148.1 685.191 2147.12 686.539 2145.48 687.945C2143.88 689.352 2141.61 690.055 2138.69 690.055C2135.68 690.055 2133.2 689.039 2131.24 687.008C2129.33 684.938 2128.37 681.91 2128.37 677.926ZM2159.17 673.004C2159.17 668.082 2160.5 664.098 2163.16 661.051C2165.81 657.965 2169.25 656.422 2173.47 656.422C2177.77 656.422 2181.14 657.926 2183.61 660.934C2186.07 663.902 2187.3 667.711 2187.3 672.359C2187.3 672.906 2187.26 673.688 2187.18 674.703H2163.74C2163.74 677.867 2164.62 680.582 2166.38 682.848C2168.14 685.113 2170.58 686.246 2173.7 686.246C2175.73 686.246 2177.53 685.777 2179.09 684.84C2180.66 683.863 2181.87 682.574 2182.73 680.973L2186.59 682.145C2185.62 684.449 2184.04 686.344 2181.85 687.828C2179.66 689.312 2176.95 690.055 2173.7 690.055C2169.33 690.055 2165.81 688.492 2163.16 685.367C2160.5 682.242 2159.17 678.121 2159.17 673.004ZM2163.86 671.246H2182.73C2182.73 668.16 2181.89 665.562 2180.21 663.453C2178.53 661.305 2176.28 660.23 2173.47 660.23C2170.62 660.23 2168.31 661.324 2166.55 663.512C2164.84 665.699 2163.94 668.277 2163.86 671.246ZM2193.55 689V657.477H2198V662.867H2198.06C2198.53 661.305 2199.68 659.84 2201.51 658.473C2203.35 657.105 2205.54 656.422 2208.08 656.422C2211.01 656.422 2213.41 657.34 2215.28 659.176C2217.2 661.012 2218.15 664.156 2218.15 668.609V689H2213.58V669.371C2213.58 663.277 2211.4 660.23 2207.02 660.23C2204.6 660.23 2202.51 661.207 2200.75 663.16C2198.99 665.113 2198.12 667.457 2198.12 670.191V689H2193.55ZM2241.43 689V645.113H2257.96C2262.21 645.113 2265.57 646.285 2268.03 648.629C2270.53 650.973 2271.78 654.078 2271.78 657.945C2271.78 661.93 2270.51 665.074 2267.98 667.379C2265.44 669.684 2262.1 670.836 2257.96 670.836H2246.12V689H2241.43ZM2246.12 666.91H2257.25C2260.34 666.91 2262.72 666.168 2264.4 664.684C2266.12 663.16 2266.98 660.914 2266.98 657.945C2266.98 655.055 2266.12 652.867 2264.4 651.383C2262.72 649.859 2260.3 649.098 2257.14 649.098H2246.12V666.91ZM2277.92 689V657.477H2282.25V662.047C2282.88 660.641 2283.91 659.352 2285.36 658.18C2286.8 657.008 2288.66 656.422 2290.92 656.422C2292.6 656.422 2294.09 656.695 2295.38 657.242V661.344C2293.97 660.797 2292.49 660.523 2290.92 660.523C2288.27 660.523 2286.2 661.52 2284.71 663.512C2283.23 665.504 2282.49 668.141 2282.49 671.422V689H2277.92ZM2301.45 673.238C2301.45 677.223 2302.37 680.387 2304.2 682.73C2306.04 685.074 2308.32 686.246 2311.06 686.246C2313.75 686.246 2316.02 685.074 2317.86 682.73C2319.73 680.387 2320.67 677.223 2320.67 673.238C2320.67 669.176 2319.73 665.992 2317.86 663.688C2315.98 661.383 2313.71 660.23 2311.06 660.23C2308.36 660.23 2306.08 661.383 2304.2 663.688C2302.37 665.992 2301.45 669.176 2301.45 673.238ZM2296.88 673.238C2296.88 668.434 2298.11 664.43 2300.57 661.227C2303.07 658.023 2306.57 656.422 2311.06 656.422C2315.51 656.422 2318.99 658.023 2321.49 661.227C2323.99 664.43 2325.24 668.434 2325.24 673.238C2325.24 675.27 2324.96 677.242 2324.42 679.156C2323.91 681.07 2323.11 682.867 2322.02 684.547C2320.96 686.188 2319.48 687.516 2317.56 688.531C2315.69 689.547 2313.52 690.055 2311.06 690.055C2308.64 690.055 2306.47 689.566 2304.55 688.59C2302.68 687.574 2301.2 686.246 2300.1 684.605C2299.05 682.926 2298.25 681.129 2297.7 679.215C2297.15 677.301 2296.88 675.309 2296.88 673.238ZM2329.49 673.18C2329.49 667.984 2330.74 663.902 2333.24 660.934C2335.74 657.926 2338.91 656.422 2342.74 656.422C2345.04 656.422 2347.03 657.086 2348.71 658.414C2350.43 659.742 2351.64 661.266 2352.35 662.984V643.473H2356.8V689H2352.46V683.316C2351.64 685.27 2350.37 686.891 2348.65 688.18C2346.98 689.43 2345 690.055 2342.74 690.055C2341.14 690.055 2339.57 689.723 2338.05 689.059C2336.56 688.434 2335.16 687.496 2333.83 686.246C2332.54 684.957 2331.49 683.199 2330.67 680.973C2329.89 678.707 2329.49 676.109 2329.49 673.18ZM2334.06 673.18C2334.06 677.125 2334.92 680.289 2336.64 682.672C2338.36 685.055 2340.59 686.246 2343.32 686.246C2345.86 686.246 2348.01 685.074 2349.77 682.73C2351.56 680.348 2352.46 677.164 2352.46 673.18C2352.46 669.234 2351.56 666.09 2349.77 663.746C2348.01 661.402 2345.86 660.23 2343.32 660.23C2340.55 660.23 2338.3 661.422 2336.58 663.805C2334.9 666.148 2334.06 669.273 2334.06 673.18ZM2365.27 677.926V657.477H2369.84V676.988C2369.84 683.16 2372.11 686.246 2376.64 686.246C2379.41 686.246 2381.52 685.172 2382.97 683.023C2384.45 680.875 2385.2 678.336 2385.2 675.406V657.477H2389.65V689H2385.31V683.902C2385 685.191 2384.02 686.539 2382.38 687.945C2380.78 689.352 2378.52 690.055 2375.59 690.055C2372.58 690.055 2370.1 689.039 2368.15 687.008C2366.23 684.938 2365.27 681.91 2365.27 677.926ZM2398.65 689V643.473H2403.22V673.297L2416.93 657.477H2422.91L2411.66 670.074L2424.2 689H2418.69L2408.73 673.238L2403.22 679.391V689H2398.65ZM2424.12 661.285V657.477H2429.63V647.398H2434.2V657.477H2442.52V661.285H2434.2V679.742C2434.2 681.695 2434.57 683.082 2435.31 683.902C2436.05 684.723 2437.24 685.133 2438.88 685.133H2442.52V689H2438.3C2432.52 689 2429.63 686.051 2429.63 680.152V661.285H2424.12ZM2446.01 673.004C2446.01 668.082 2447.34 664.098 2450 661.051C2452.65 657.965 2456.09 656.422 2460.31 656.422C2464.61 656.422 2467.98 657.926 2470.45 660.934C2472.91 663.902 2474.14 667.711 2474.14 672.359C2474.14 672.906 2474.1 673.688 2474.02 674.703H2450.58C2450.58 677.867 2451.46 680.582 2453.22 682.848C2454.98 685.113 2457.42 686.246 2460.54 686.246C2462.57 686.246 2464.37 685.777 2465.93 684.84C2467.5 683.863 2468.71 682.574 2469.57 680.973L2473.43 682.145C2472.46 684.449 2470.88 686.344 2468.69 687.828C2466.5 689.312 2463.79 690.055 2460.54 690.055C2456.17 690.055 2452.65 688.492 2450 685.367C2447.34 682.242 2446.01 678.121 2446.01 673.004ZM2450.7 671.246H2469.57C2469.57 668.16 2468.73 665.562 2467.05 663.453C2465.37 661.305 2463.12 660.23 2460.31 660.23C2457.46 660.23 2455.15 661.324 2453.39 663.512C2451.68 665.699 2450.78 668.277 2450.7 671.246ZM2480.39 689V657.477H2484.84V662.867H2484.9C2485.37 661.305 2486.52 659.84 2488.35 658.473C2490.19 657.105 2492.38 656.422 2494.92 656.422C2497.85 656.422 2500.25 657.34 2502.12 659.176C2504.04 661.012 2504.99 664.156 2504.99 668.609V689H2500.42V669.371C2500.42 663.277 2498.24 660.23 2493.86 660.23C2491.44 660.23 2489.35 661.207 2487.59 663.16C2485.83 665.113 2484.96 667.457 2484.96 670.191V689H2480.39ZM1603.03 732.477H1608.07L1614.87 752.223C1615.18 753.199 1615.61 754.566 1616.16 756.324C1616.7 758.082 1617.09 759.332 1617.33 760.074H1617.44C1617.72 759.176 1618.15 757.867 1618.73 756.148C1619.32 754.43 1619.75 753.121 1620.02 752.223L1626.7 732.477H1631.74L1620.14 764H1614.63L1603.03 732.477ZM1633.19 748.004C1633.19 743.082 1634.51 739.098 1637.17 736.051C1639.83 732.965 1643.26 731.422 1647.48 731.422C1651.78 731.422 1655.16 732.926 1657.62 735.934C1660.08 738.902 1661.31 742.711 1661.31 747.359C1661.31 747.906 1661.27 748.688 1661.19 749.703H1637.76C1637.76 752.867 1638.63 755.582 1640.39 757.848C1642.15 760.113 1644.59 761.246 1647.72 761.246C1649.75 761.246 1651.54 760.777 1653.11 759.84C1654.67 758.863 1655.88 757.574 1656.74 755.973L1660.61 757.145C1659.63 759.449 1658.05 761.344 1655.86 762.828C1653.67 764.312 1650.96 765.055 1647.72 765.055C1643.34 765.055 1639.83 763.492 1637.17 760.367C1634.51 757.242 1633.19 753.121 1633.19 748.004ZM1637.87 746.246H1656.74C1656.74 743.16 1655.9 740.562 1654.22 738.453C1652.54 736.305 1650.29 735.23 1647.48 735.23C1644.63 735.23 1642.33 736.324 1640.57 738.512C1638.85 740.699 1637.95 743.277 1637.87 746.246ZM1667.56 764V732.477H1671.89V737.047C1672.52 735.641 1673.55 734.352 1675 733.18C1676.45 732.008 1678.3 731.422 1680.57 731.422C1682.25 731.422 1683.73 731.695 1685.02 732.242V736.344C1683.61 735.797 1682.13 735.523 1680.57 735.523C1677.91 735.523 1675.84 736.52 1674.36 738.512C1672.87 740.504 1672.13 743.141 1672.13 746.422V764H1667.56ZM1690.68 755.914C1690.68 757.398 1691.31 758.668 1692.56 759.723C1693.81 760.738 1695.53 761.246 1697.71 761.246C1700.49 761.246 1702.85 760.348 1704.8 758.551C1706.8 756.754 1707.79 754.469 1707.79 751.695V747.301C1706.07 747.73 1703.34 748.238 1699.59 748.824C1696.54 749.371 1694.3 750.211 1692.85 751.344C1691.4 752.477 1690.68 754 1690.68 755.914ZM1686.11 756.266C1686.11 750.406 1690.64 746.773 1699.71 745.367C1703.77 744.703 1706.46 744.156 1707.79 743.727V741.91C1707.79 739.957 1707.09 738.336 1705.68 737.047C1704.28 735.758 1702.28 735.113 1699.71 735.113C1697.83 735.113 1696.01 735.562 1694.26 736.461C1692.54 737.32 1691.07 738.492 1689.86 739.977L1686.93 737.516C1688.49 735.719 1690.37 734.254 1692.56 733.121C1694.78 731.988 1697.13 731.422 1699.59 731.422C1708.03 731.422 1712.24 735.543 1712.24 743.785V764H1707.91V758.844C1707.28 760.523 1705.99 761.988 1704.04 763.238C1702.09 764.449 1699.78 765.055 1697.13 765.055C1693.65 765.055 1690.94 764.234 1688.98 762.594C1687.07 760.953 1686.11 758.844 1686.11 756.266ZM1720.43 764V732.477H1724.76V737.047C1725.39 735.641 1726.42 734.352 1727.87 733.18C1729.31 732.008 1731.17 731.422 1733.43 731.422C1735.11 731.422 1736.6 731.695 1737.89 732.242V736.344C1736.48 735.797 1735 735.523 1733.43 735.523C1730.78 735.523 1728.71 736.52 1727.22 738.512C1725.74 740.504 1725 743.141 1725 746.422V764H1720.43ZM1741.85 764V718.473H1746.3V738.102C1746.85 736.461 1748 734.938 1749.76 733.531C1751.52 732.125 1753.57 731.422 1755.91 731.422C1759.82 731.422 1763 732.926 1765.46 735.934C1767.92 738.902 1769.16 742.984 1769.16 748.18C1769.16 751.07 1768.75 753.648 1767.92 755.914C1767.14 758.141 1766.09 759.898 1764.76 761.188C1763.47 762.477 1762.07 763.434 1760.54 764.059C1759.06 764.723 1757.51 765.055 1755.91 765.055C1753.69 765.055 1751.71 764.41 1750 763.121C1748.28 761.793 1747.05 760.211 1746.3 758.375V764H1741.85ZM1746.19 748.18C1746.19 752.164 1747.07 755.348 1748.82 757.73C1750.62 760.074 1752.79 761.246 1755.33 761.246C1758.02 761.246 1760.23 760.094 1761.95 757.789C1763.71 755.445 1764.59 752.242 1764.59 748.18C1764.59 744.234 1763.73 741.09 1762.01 738.746C1760.29 736.402 1758.06 735.23 1755.33 735.23C1752.79 735.23 1750.62 736.402 1748.82 738.746C1747.07 741.09 1746.19 744.234 1746.19 748.18ZM1773.41 748.004C1773.41 743.082 1774.74 739.098 1777.4 736.051C1780.05 732.965 1783.49 731.422 1787.71 731.422C1792.01 731.422 1795.38 732.926 1797.85 735.934C1800.31 738.902 1801.54 742.711 1801.54 747.359C1801.54 747.906 1801.5 748.688 1801.42 749.703H1777.98C1777.98 752.867 1778.86 755.582 1780.62 757.848C1782.38 760.113 1784.82 761.246 1787.94 761.246C1789.97 761.246 1791.77 760.777 1793.33 759.84C1794.9 758.863 1796.11 757.574 1796.97 755.973L1800.83 757.145C1799.86 759.449 1798.28 761.344 1796.09 762.828C1793.9 764.312 1791.19 765.055 1787.94 765.055C1783.57 765.055 1780.05 763.492 1777.4 760.367C1774.74 757.242 1773.41 753.121 1773.41 748.004ZM1778.1 746.246H1796.97C1796.97 743.16 1796.13 740.562 1794.45 738.453C1792.77 736.305 1790.52 735.23 1787.71 735.23C1784.86 735.23 1782.55 736.324 1780.79 738.512C1779.08 740.699 1778.18 743.277 1778.1 746.246ZM1808.25 725.387V719.469H1814V725.387H1808.25ZM1808.96 764V732.477H1813.41V764H1808.96ZM1819.48 736.285V732.477H1824.99V722.398H1829.56V732.477H1837.88V736.285H1829.56V754.742C1829.56 756.695 1829.93 758.082 1830.67 758.902C1831.42 759.723 1832.61 760.133 1834.25 760.133H1837.88V764H1833.66C1827.88 764 1824.99 761.051 1824.99 755.152V736.285H1819.48ZM1841.38 748.004C1841.38 743.082 1842.7 739.098 1845.36 736.051C1848.02 732.965 1851.45 731.422 1855.67 731.422C1859.97 731.422 1863.35 732.926 1865.81 735.934C1868.27 738.902 1869.5 742.711 1869.5 747.359C1869.5 747.906 1869.46 748.688 1869.38 749.703H1845.95C1845.95 752.867 1846.82 755.582 1848.58 757.848C1850.34 760.113 1852.78 761.246 1855.91 761.246C1857.94 761.246 1859.74 760.777 1861.3 759.84C1862.86 758.863 1864.07 757.574 1864.93 755.973L1868.8 757.145C1867.82 759.449 1866.24 761.344 1864.05 762.828C1861.86 764.312 1859.15 765.055 1855.91 765.055C1851.53 765.055 1848.02 763.492 1845.36 760.367C1842.7 757.242 1841.38 753.121 1841.38 748.004ZM1846.06 746.246H1864.93C1864.93 743.16 1864.09 740.562 1862.41 738.453C1860.73 736.305 1858.49 735.23 1855.67 735.23C1852.82 735.23 1850.52 736.324 1848.76 738.512C1847.04 740.699 1846.14 743.277 1846.06 746.246ZM1875.75 764V732.477H1880.2V737.867H1880.26C1880.73 736.305 1881.88 734.84 1883.72 733.473C1885.55 732.105 1887.74 731.422 1890.28 731.422C1893.21 731.422 1895.61 732.34 1897.49 734.176C1899.4 736.012 1900.36 739.156 1900.36 743.609V764H1895.79V744.371C1895.79 738.277 1893.6 735.23 1889.23 735.23C1886.8 735.23 1884.71 736.207 1882.96 738.16C1881.2 740.113 1880.32 742.457 1880.32 745.191V764H1875.75ZM1918.01 732.477H1923.05L1927.68 752.047C1928.66 756.539 1929.22 759.137 1929.38 759.84H1929.61C1929.81 758.902 1930.12 757.555 1930.55 755.797C1930.98 754.039 1931.27 752.789 1931.43 752.047L1936.23 732.477H1941.62L1946.49 752.281C1946.64 752.945 1946.92 754.098 1947.31 755.738C1947.7 757.379 1948.01 758.746 1948.25 759.84H1948.48C1948.6 759.371 1949.16 756.773 1950.18 752.047L1954.81 732.477H1959.85L1951.18 764H1945.49L1940.75 745.016C1939.69 740.25 1939.12 737.672 1939.05 737.281H1938.81C1937.88 741.695 1937.31 744.273 1937.11 745.016L1932.37 764H1926.68L1918.01 732.477ZM1961.94 748.004C1961.94 743.082 1963.26 739.098 1965.92 736.051C1968.58 732.965 1972.01 731.422 1976.23 731.422C1980.53 731.422 1983.91 732.926 1986.37 735.934C1988.83 738.902 1990.06 742.711 1990.06 747.359C1990.06 747.906 1990.02 748.688 1989.94 749.703H1966.51C1966.51 752.867 1967.39 755.582 1969.14 757.848C1970.9 760.113 1973.34 761.246 1976.47 761.246C1978.5 761.246 1980.3 760.777 1981.86 759.84C1983.42 758.863 1984.63 757.574 1985.49 755.973L1989.36 757.145C1988.38 759.449 1986.8 761.344 1984.61 762.828C1982.42 764.312 1979.71 765.055 1976.47 765.055C1972.09 765.055 1968.58 763.492 1965.92 760.367C1963.26 757.242 1961.94 753.121 1961.94 748.004ZM1966.62 746.246H1985.49C1985.49 743.16 1984.65 740.562 1982.97 738.453C1981.29 736.305 1979.05 735.23 1976.23 735.23C1973.38 735.23 1971.08 736.324 1969.32 738.512C1967.6 740.699 1966.7 743.277 1966.62 746.246ZM1996.31 764V732.477H2000.65V737.047C2001.27 735.641 2002.31 734.352 2003.75 733.18C2005.2 732.008 2007.05 731.422 2009.32 731.422C2011 731.422 2012.48 731.695 2013.77 732.242V736.344C2012.36 735.797 2010.88 735.523 2009.32 735.523C2006.66 735.523 2004.59 736.52 2003.11 738.512C2001.62 740.504 2000.88 743.141 2000.88 746.422V764H1996.31ZM2015.27 748.18C2015.27 742.984 2016.52 738.902 2019.02 735.934C2021.52 732.926 2024.69 731.422 2028.51 731.422C2030.82 731.422 2032.81 732.086 2034.49 733.414C2036.21 734.742 2037.42 736.266 2038.12 737.984V718.473H2042.58V764H2038.24V758.316C2037.42 760.27 2036.15 761.891 2034.43 763.18C2032.75 764.43 2030.78 765.055 2028.51 765.055C2026.91 765.055 2025.35 764.723 2023.83 764.059C2022.34 763.434 2020.94 762.496 2019.61 761.246C2018.32 759.957 2017.26 758.199 2016.44 755.973C2015.66 753.707 2015.27 751.109 2015.27 748.18ZM2019.84 748.18C2019.84 752.125 2020.7 755.289 2022.42 757.672C2024.14 760.055 2026.37 761.246 2029.1 761.246C2031.64 761.246 2033.79 760.074 2035.55 757.73C2037.34 755.348 2038.24 752.164 2038.24 748.18C2038.24 744.234 2037.34 741.09 2035.55 738.746C2033.79 736.402 2031.64 735.23 2029.1 735.23C2026.33 735.23 2024.08 736.422 2022.36 738.805C2020.68 741.148 2019.84 744.273 2019.84 748.18ZM2049.29 748.004C2049.29 743.082 2050.62 739.098 2053.28 736.051C2055.94 732.965 2059.37 731.422 2063.59 731.422C2067.89 731.422 2071.27 732.926 2073.73 735.934C2076.19 738.902 2077.42 742.711 2077.42 747.359C2077.42 747.906 2077.38 748.688 2077.3 749.703H2053.86C2053.86 752.867 2054.74 755.582 2056.5 757.848C2058.26 760.113 2060.7 761.246 2063.83 761.246C2065.86 761.246 2067.65 760.777 2069.22 759.84C2070.78 758.863 2071.99 757.574 2072.85 755.973L2076.72 757.145C2075.74 759.449 2074.16 761.344 2071.97 762.828C2069.78 764.312 2067.07 765.055 2063.83 765.055C2059.45 765.055 2055.94 763.492 2053.28 760.367C2050.62 757.242 2049.29 753.121 2049.29 748.004ZM2053.98 746.246H2072.85C2072.85 743.16 2072.01 740.562 2070.33 738.453C2068.65 736.305 2066.4 735.23 2063.59 735.23C2060.74 735.23 2058.44 736.324 2056.68 738.512C2054.96 740.699 2054.06 743.277 2053.98 746.246ZM2083.67 764V732.477H2088.12V737.867H2088.18C2088.65 736.305 2089.8 734.84 2091.64 733.473C2093.47 732.105 2095.66 731.422 2098.2 731.422C2101.13 731.422 2103.53 732.34 2105.41 734.176C2107.32 736.012 2108.28 739.156 2108.28 743.609V764H2103.71V744.371C2103.71 738.277 2101.52 735.23 2097.14 735.23C2094.72 735.23 2092.63 736.207 2090.88 738.16C2089.12 740.113 2088.24 742.457 2088.24 745.191V764H2083.67ZM2118.33 764V757.027H2125.72V764H2118.33Z" fill="white"/>
<path d="M1178.5 674.536C1180.45 672.583 1180.45 669.417 1178.5 667.464L1146.68 635.645C1144.73 633.692 1141.56 633.692 1139.61 635.645C1137.65 637.597 1137.65 640.763 1139.61 642.716L1167.89 671L1139.61 699.284C1137.65 701.237 1137.65 704.403 1139.61 706.355C1141.56 708.308 1144.73 708.308 1146.68 706.355L1178.5 674.536ZM715 676H1174.96V666H715V676Z" fill="#AFAFAF"/>
</svg>
